<svg width="535" height="199" viewBox="0 0 535 199" fill="none" xmlns="http://www.w3.org/2000/svg">
<path d="M189.836 113.484L173.836 165.484L207.836 183.484L249.836 128.984C232.311 113.871 219.857 109.454 189.836 113.484Z" fill="#696969"/>
<path d="M275.836 126.984C298.803 110.815 312.941 108.069 339.836 110.484L353.337 159.484C348.782 172.486 341.438 176.95 322.337 181.484L275.836 126.984Z" fill="#696969"/>
<path d="M259.836 99.9841L307.836 93.4841L353.337 82.9841L261.336 64.4841L183.837 82.9841L217.836 93.4841L259.836 99.9841Z" fill="#696969"/>
<path fill-rule="evenodd" clip-rule="evenodd" d="M22.8374 131.984C22.8374 131.984 -0.561308 144.267 2.83739 155.984C5.46247 165.034 22.8374 169.484 22.8374 169.484L160.837 193.484L166.837 163.484C166.837 163.484 194.836 190.429 205.837 187.984C216.839 185.539 252.337 131.984 252.337 131.984C252.337 131.984 248.336 174.984 252.337 177.484C256.339 179.984 275.336 179.484 277.837 177.484C280.339 175.484 274.337 128.984 274.337 128.984C274.337 128.984 312.839 185.484 322.337 184.984C331.836 184.484 355.837 172.984 355.837 172.984V159.484L367.837 163.484L370.837 195.484C370.837 195.484 524.836 163.484 531.337 154.484C537.839 145.484 511.337 125.484 511.337 125.484C459.844 95.9446 425.587 86.0465 353.337 82.9841L307.836 93.4841L259.836 99.9841L217.836 93.4841L183.837 82.9841C100.306 89.0995 69.88 102.881 22.8374 131.984ZM173.836 165.484L189.836 113.484C219.857 109.454 232.311 113.871 249.836 128.984L207.836 183.484L173.836 165.484ZM339.836 110.484C312.941 108.069 298.803 110.815 275.836 126.984L322.337 181.484C341.438 176.95 348.782 172.486 353.337 159.484L339.836 110.484Z" fill="#696969"/>
<path d="M353.337 82.9841L332.337 46.4841L264.337 2.98413L198.837 46.4841L183.837 82.9841L261.336 64.4841L353.337 82.9841Z" fill="#696969"/>
<path d="M353.337 82.9841C425.587 86.0465 459.844 95.9446 511.337 125.484C511.337 125.484 537.839 145.484 531.337 154.484C524.836 163.484 370.837 195.484 370.837 195.484L367.837 163.484L355.837 159.484V172.984C355.837 172.984 331.836 184.484 322.337 184.984C312.839 185.484 274.337 128.984 274.337 128.984C274.337 128.984 280.339 175.484 277.837 177.484C275.336 179.484 256.339 179.984 252.337 177.484C248.336 174.984 252.337 131.984 252.337 131.984C252.337 131.984 216.839 185.539 205.837 187.984C194.836 190.429 166.837 163.484 166.837 163.484L160.837 193.484L22.8374 169.484C22.8374 169.484 5.46247 165.034 2.83739 155.984C-0.561308 144.267 22.8374 131.984 22.8374 131.984C69.88 102.881 100.306 89.0995 183.837 82.9841M353.337 82.9841L332.337 46.4841L264.337 2.98413L198.837 46.4841L183.837 82.9841M353.337 82.9841L307.836 93.4841L259.836 99.9841L217.836 93.4841L183.837 82.9841M353.337 82.9841L261.336 64.4841L183.837 82.9841M189.836 113.484L173.836 165.484L207.836 183.484L249.836 128.984C232.311 113.871 219.857 109.454 189.836 113.484ZM275.836 126.984C298.803 110.815 312.941 108.069 339.836 110.484L353.337 159.484C348.782 172.486 341.438 176.95 322.337 181.484L275.836 126.984Z" stroke="black" stroke-width="5"/>
<circle cx="213.336" cy="148.484" r="9.5" fill="#ACFDFF"/>
<circle cx="315.336" cy="148.484" r="9.5" fill="#ACFDFF"/>
</svg>
